<svg width="24" height="24" viewBox="0 0 24 24" fill="none" xmlns="http://www.w3.org/2000/svg">
<g clip-path="url(#clip0_567_2361)">
<path d="M23.7642 6.39208C23.5414 6.11266 23.252 5.89287 22.9223 5.75259C19.8362 4.45514 16.6104 3.28404 13.0606 2.17265C12.4462 1.95935 11.7799 1.94436 11.1564 2.12982C9.43385 2.67012 1.69738 5.53327 1.05247 5.80075C0.737592 5.91516 0.4667 6.12488 0.277908 6.40041C0.0891155 6.67594 -0.00807639 7.00341 8.70522e-06 7.33675C-0.00792065 7.6696 0.0884784 7.99667 0.275837 8.27257C0.463196 8.54847 0.732228 8.75954 1.04562 8.87651C2.25557 9.39321 3.49836 9.89059 4.74025 10.3557C4.82748 10.3879 4.84435 10.4043 4.84395 10.519C4.8381 11.7113 4.83958 12.9042 4.84047 14.097V14.3071C4.81036 14.5911 4.87674 14.8769 5.02903 15.119C5.18132 15.361 5.41074 15.5454 5.68068 15.6426C7.63645 16.506 9.64323 17.2502 11.6899 17.8712C11.9369 17.9535 12.2039 17.9556 12.4521 17.877C13.4589 17.5622 14.537 17.2157 15.5967 16.8142C15.9789 16.6701 16.3608 16.5232 16.7465 16.3747L17.1598 16.2157V16.3256C17.1588 16.5728 17.1583 16.8124 17.1627 17.0519C17.1637 17.1013 17.1637 17.1039 17.1036 17.1319C16.8305 17.2506 16.5993 17.4478 16.4396 17.698C16.2799 17.9483 16.1989 18.2404 16.2072 18.5367C16.1941 19.1289 16.1994 19.7295 16.2043 20.3108L16.2053 20.4342C16.2077 20.812 16.3826 20.9968 16.7398 20.9985C17.0343 21.0001 17.329 21.0007 17.624 21.0004C17.919 21.0002 18.2136 20.9995 18.5078 20.9985C18.8823 20.9966 19.05 20.8192 19.051 20.4231C19.0544 19.7999 19.0544 19.1764 19.051 18.5527C19.0629 18.2567 18.9856 17.964 18.829 17.7121C18.6724 17.4602 18.4435 17.2606 18.172 17.1391C18.1051 17.1068 18.1032 17.0996 18.1051 17.0384C18.11 16.8495 18.109 16.6611 18.1081 16.4721L18.1071 16.2311C18.1071 15.8056 18.1071 15.8056 18.4637 15.6518C18.6422 15.5869 18.8042 15.4836 18.9382 15.3495C19.0722 15.2153 19.1748 15.0535 19.2389 14.8754C19.3557 14.53 19.314 10.5514 19.3135 10.5114C19.3107 10.3755 19.3359 10.3509 19.4347 10.314C20.6077 9.87972 21.8021 9.40121 23.0852 8.84937C23.305 8.77927 23.5028 8.65358 23.6592 8.48461C23.8156 8.31564 23.9251 8.10919 23.9772 7.88545C24.0548 7.37766 23.9808 6.85837 23.7642 6.39208V6.39208ZM17.1608 13.1335L17.1603 13.6632C17.1593 14.1271 17.1588 14.5904 17.1642 15.0699C17.1673 15.0924 17.1625 15.1152 17.1506 15.1345C17.1411 15.1499 17.1263 15.1612 17.1089 15.1663L17.0924 15.1721C15.6301 15.777 14.0447 16.3442 12.2447 16.9066C12.1353 16.9414 12.0177 16.9404 11.9089 16.9038C9.9172 16.2947 7.96324 15.5697 6.05717 14.7323C5.96831 14.705 5.89204 14.6472 5.84185 14.5694C5.79165 14.4915 5.77077 14.3984 5.78289 14.3067C5.79281 13.1303 5.79281 11.9558 5.782 10.816C5.78148 10.7924 5.78228 10.7687 5.78438 10.7451C5.79936 10.7495 5.8198 10.7562 5.84739 10.7659C7.7855 11.4739 9.56137 12.0662 11.2754 12.5776C11.825 12.7349 12.41 12.7203 12.951 12.5356C14.6274 12.017 15.9061 11.5944 17.0976 11.1654C17.1191 11.1571 17.1411 11.1501 17.1635 11.1447C17.1657 11.1755 17.1664 11.2063 17.1655 11.2372C17.1562 11.6893 17.1577 12.1414 17.1596 12.5934L17.1608 13.1335ZM17.6758 9.67887C16.431 9.02447 15.1572 8.37668 13.9255 7.75061L12.7404 7.14724C12.5644 7.05762 12.3881 6.96752 12.2088 6.88648C12.1549 6.85983 12.0961 6.84472 12.036 6.84214C11.9759 6.83957 11.9159 6.84958 11.8599 6.87153C11.804 6.89348 11.7533 6.92689 11.7112 6.96957C11.669 7.01226 11.6363 7.06328 11.6153 7.11932C11.558 7.22597 11.5426 7.34994 11.5719 7.46726C11.6012 7.58458 11.6733 7.68691 11.7741 7.75447C11.8305 7.79272 11.89 7.82641 11.9519 7.85524L16.6834 10.2693C15.1261 10.8086 13.8169 11.2371 12.5741 11.6149C12.2078 11.7245 11.8168 11.7208 11.4527 11.6043C8.0457 10.566 4.69599 9.34998 1.41755 7.96125C1.07936 7.81665 0.938851 7.62922 0.948079 7.33469C0.946544 7.19621 0.991018 7.06109 1.0746 6.95032C1.15818 6.83956 1.27619 6.75935 1.4103 6.72214C1.93316 6.5125 2.45353 6.29565 2.97391 6.0788L4.90577 5.31533C6.86422 4.5722 8.99177 3.84467 11.4121 3.09118C11.6111 3.02657 11.8191 2.99356 12.0284 2.99336C12.2289 2.99345 12.4282 3.02383 12.6195 3.08347C16.0349 4.12223 19.3926 5.34022 22.6784 6.73231C22.8074 6.77313 22.9197 6.85419 22.9986 6.96347C23.0776 7.07276 23.1191 7.20445 23.1169 7.33903C23.1206 7.47331 23.0803 7.60514 23.0022 7.71473C22.9241 7.82433 22.8124 7.90577 22.6838 7.94684C21.2287 8.56708 19.7398 9.1594 18.258 9.7069C18.166 9.75005 18.0648 9.76995 17.9632 9.76485C17.8617 9.75976 17.763 9.72982 17.6758 9.67768V9.67887ZM18.3711 12.2559L18.3692 13.9591C18.3683 14.0174 18.3692 14.0762 18.3701 14.135L18.3711 14.254C18.3711 14.5663 18.3372 14.6559 18.1071 14.7258V11.199C18.1071 10.8269 18.1071 10.8014 18.3711 10.7112V11.1296C18.3706 11.5049 18.3701 11.8799 18.3711 12.255V12.2559ZM18.1061 19.0383L18.1046 19.4461C18.1037 19.6171 18.1027 19.7886 18.1076 19.9603C18.1085 19.9849 18.1076 20.0003 18.1095 20.0075C18.1025 20.0067 18.0955 20.0067 18.0886 20.0075C17.8027 19.9976 17.5043 19.9976 17.1739 20.0075L17.1496 20.008C17.1479 19.9918 17.1473 19.9755 17.1477 19.9593C17.1506 19.7342 17.1501 19.5091 17.1496 19.2841C17.1491 19.059 17.1482 18.8369 17.1516 18.6129C17.1485 18.5248 17.1629 18.437 17.194 18.3545C17.2251 18.2719 17.2722 18.1963 17.3328 18.1319C17.4114 18.0553 17.5173 18.0127 17.6274 18.0135H17.639C17.9215 18.0207 18.1002 18.2496 18.1054 18.6115V18.612C18.1071 18.7533 18.1063 18.8949 18.1063 19.0371L18.1061 19.0383Z" fill="#6B7379"/>
</g>
<defs>
<clipPath id="clip0_567_2361">
<rect width="24" height="19" fill="white" transform="translate(0 2)"/>
</clipPath>
</defs>
</svg>
