<svg width="18" height="21" viewBox="0 0 18 21" fill="none" xmlns="http://www.w3.org/2000/svg">
<path d="M3.34884 2.79167C3.34884 2.18388 3.5914 1.60098 4.02317 1.17121C4.45494 0.741443 5.04055 0.5 5.65116 0.5H12.3488C12.9595 0.5 13.5451 0.741443 13.9768 1.17121C14.4086 1.60098 14.6512 2.18388 14.6512 2.79167V3H16.5349C17.3436 3 18 3.65333 18 4.45833V6.95833C18 7.89462 17.6276 8.79281 16.9641 9.4565C16.3006 10.1202 15.4001 10.4954 14.4594 10.5C14.1643 11.5922 13.5455 12.5705 12.6837 13.3077C11.8219 14.0448 10.7571 14.5064 9.62791 14.6325V16.3333H11.9302C12.6519 16.3333 13.3439 16.6187 13.8542 17.1266C14.3645 17.6345 14.6512 18.3234 14.6512 19.0417V19.4583C14.6512 20.0333 14.1823 20.5 13.6047 20.5H4.39535C3.81767 20.5 3.34884 20.0333 3.34884 19.4583V19.0417C3.34884 18.3234 3.63551 17.6345 4.14578 17.1266C4.65605 16.6187 5.34813 16.3333 6.06977 16.3333H8.37209V14.6325C7.24281 14.5064 6.17788 14.0446 5.31608 13.3073C4.45428 12.57 3.83556 11.5915 3.54056 10.4992C2.60008 10.4945 1.69969 10.1195 1.03623 9.45597C0.372768 8.79245 0.000209812 7.89447 0 6.95833V4.45833C0 3.65333 0.656372 3 1.46512 3H3.34884V2.79167ZM3.34884 4.25H1.46512C1.40961 4.25 1.35637 4.27195 1.31712 4.31102C1.27787 4.35009 1.25581 4.40308 1.25581 4.45833V6.95833C1.2556 7.53078 1.47063 8.08258 1.8586 8.50515C2.24657 8.92772 2.77938 9.19046 3.35219 9.24167C3.3499 9.17502 3.34878 9.10835 3.34884 9.04167V4.25ZM14.6478 9.24167C15.2206 9.19046 15.7534 8.92772 16.1414 8.50515C16.5294 8.08258 16.7444 7.53078 16.7442 6.95833V4.45833C16.7442 4.40308 16.7221 4.35009 16.6829 4.31102C16.6436 4.27195 16.5904 4.25 16.5349 4.25H14.6512V9.04167C14.6512 9.10833 14.6503 9.175 14.6478 9.24167ZM5.65116 1.75C5.07349 1.75 4.60465 2.21667 4.60465 2.79167V9.04167C4.60465 9.6162 4.71834 10.1851 4.93923 10.7159C5.16011 11.2467 5.48387 11.729 5.89202 12.1353C6.30016 12.5415 6.7847 12.8638 7.31797 13.0836C7.85124 13.3035 8.42279 13.4167 9 13.4167C9.57721 13.4167 10.1488 13.3035 10.682 13.0836C11.2153 12.8638 11.6998 12.5415 12.108 12.1353C12.5161 11.729 12.8399 11.2467 13.0608 10.7159C13.2817 10.1851 13.3953 9.6162 13.3953 9.04167V2.79167C13.3953 2.21667 12.9265 1.75 12.3488 1.75H5.65116ZM4.60465 19.0417V19.25H13.3953V19.0417C13.3953 18.6549 13.241 18.284 12.9662 18.0105C12.6915 17.737 12.3188 17.5833 11.9302 17.5833H6.06977C5.68119 17.5833 5.30854 17.737 5.03377 18.0105C4.75901 18.284 4.60465 18.6549 4.60465 19.0417Z" fill="#6B7379"/>
</svg>
