<svg width="24" height="24" viewBox="0 0 24 24" fill="none" xmlns="http://www.w3.org/2000/svg">
<path d="M20.2581 2.47348H3.74235C2.97747 2.47429 2.24414 2.77847 1.70324 3.31928C1.16235 3.8601 0.858065 4.59339 0.857147 5.35827V15.932C0.858065 16.6968 1.16235 17.4301 1.70324 17.971C2.24414 18.5118 2.97747 18.8159 3.74235 18.8168H8.92245V21.1514H6.48164C6.34091 21.1514 6.20595 21.2074 6.10644 21.3069C6.00693 21.4064 5.95103 21.5413 5.95103 21.6821C5.95103 21.8228 6.00693 21.9577 6.10644 22.0573C6.20595 22.1568 6.34091 22.2127 6.48164 22.2127H17.5184C17.6591 22.2127 17.7941 22.1568 17.8936 22.0573C17.9931 21.9577 18.049 21.8228 18.049 21.6821C18.049 21.5413 17.9931 21.4064 17.8936 21.3069C17.7941 21.2074 17.6591 21.1514 17.5184 21.1514H15.0776V18.8168H20.2581C21.0229 18.8159 21.7561 18.5116 22.2969 17.9708C22.8377 17.43 23.142 16.6968 23.1429 15.932V5.35827C23.142 4.59345 22.8377 3.86021 22.2969 3.3194C21.7561 2.77859 21.0229 2.47437 20.2581 2.47348V2.47348ZM14.0163 21.1514H9.98368V18.8168H14.0163V21.1514ZM20.2581 17.7555H3.74235C3.31763 17.7548 2.90647 17.6059 2.57974 17.3345C2.25301 17.0632 2.03117 16.6863 1.95246 16.269H22.0475C21.9689 16.6863 21.7472 17.0632 21.4205 17.3345C21.0939 17.6059 20.6827 17.7548 20.2581 17.7555V17.7555ZM22.0816 15.2078H1.91837V5.35827C1.91896 4.87474 2.11133 4.41118 2.45328 4.06931C2.79522 3.72744 3.25882 3.53518 3.74235 3.5347H20.2581C20.7416 3.5352 21.2051 3.72748 21.547 4.06936C21.8889 4.41124 22.0811 4.87478 22.0816 5.35827V15.2078Z" fill="#666666"/>
<path d="M15.4129 6.52969C15.3342 6.41411 15.2131 6.33428 15.0758 6.30753C14.9386 6.28078 14.7963 6.30929 14.68 6.38685C14.5636 6.46442 14.4826 6.58477 14.4545 6.72174C14.4264 6.85872 14.4535 7.00124 14.53 7.11834L16.0318 9.37096L14.53 11.6236C14.4905 11.6815 14.4629 11.7467 14.4488 11.8154C14.4347 11.8841 14.4343 11.9549 14.4477 12.0237C14.4611 12.0925 14.4881 12.158 14.5269 12.2164C14.5658 12.2747 14.6159 12.3248 14.6742 12.3637C14.7325 12.4026 14.798 12.4296 14.8668 12.443C14.9357 12.4564 15.0065 12.4561 15.0751 12.442C15.1438 12.4279 15.209 12.4004 15.267 12.3609C15.325 12.3215 15.3746 12.2709 15.4129 12.2122L17.1109 9.66528C17.169 9.57814 17.2001 9.47572 17.2001 9.37095C17.2001 9.26618 17.169 9.16376 17.1109 9.07663L15.4129 6.52969Z" fill="#666666"/>
<path d="M13.2195 5.46871C13.0852 5.42696 12.9398 5.44017 12.8151 5.50544C12.6905 5.57071 12.5968 5.68272 12.5546 5.81693L10.4322 12.6088C10.4114 12.6753 10.4039 12.7453 10.4101 12.8147C10.4164 12.8841 10.4362 12.9516 10.4686 13.0134C10.5009 13.0751 10.5451 13.1299 10.5986 13.1745C10.6521 13.2192 10.7139 13.2529 10.7804 13.2737C10.8317 13.2895 10.8851 13.2976 10.9387 13.2977C11.0518 13.2977 11.1619 13.2615 11.253 13.1946C11.3441 13.1276 11.4115 13.0334 11.4453 12.9255L13.5678 6.13364C13.5886 6.06712 13.5961 5.99715 13.5898 5.92773C13.5836 5.85831 13.5637 5.7908 13.5314 5.72905C13.499 5.6673 13.4549 5.61253 13.4014 5.56786C13.3479 5.52319 13.2861 5.4895 13.2195 5.46871V5.46871Z" fill="#666666"/>
<path d="M9.32289 6.38273C9.26492 6.34406 9.1999 6.31719 9.13154 6.30365C9.06319 6.29012 8.99283 6.29018 8.9245 6.30385C8.85616 6.31751 8.79119 6.34451 8.7333 6.3833C8.6754 6.42208 8.62572 6.47189 8.58708 6.52989L6.88912 9.07683C6.83095 9.16396 6.7999 9.26638 6.7999 9.37115C6.7999 9.47592 6.83095 9.57834 6.88912 9.66548L8.58708 12.2124C8.66564 12.3283 8.78683 12.4085 8.92425 12.4355C9.06167 12.4624 9.20416 12.4339 9.32068 12.3563C9.4372 12.2786 9.51828 12.158 9.54626 12.0208C9.57424 11.8836 9.54685 11.7409 9.47005 11.6238L7.96817 9.37114L9.47005 7.11852C9.54807 7.00142 9.5764 6.85813 9.5488 6.72016C9.52121 6.58218 9.43995 6.46081 9.32289 6.38273V6.38273Z" fill="#666666"/>
</svg>
