<svg width="16" height="16" viewBox="0 0 16 16" fill="none" xmlns="http://www.w3.org/2000/svg">
<path d="M8 0C3.58678 0 0 3.58694 0 8C0 12.4131 3.58694 16 8 16C12.4131 16 16 12.4131 16 8C16 3.58694 12.4131 0 8 0ZM8 14.7828C4.26089 14.7828 1.21759 11.7393 1.21759 8.0004C1.21759 4.26145 4.26105 1.21799 8 1.21799C11.739 1.21799 14.7824 4.26145 14.7824 8.0004C14.7824 11.7393 11.739 14.7828 8 14.7828Z" fill="#A4AAAF"/>
<path d="M7.03459 9.54775L4.84328 7.35644L3.98242 8.2173L6.59545 10.8303C6.71284 10.9477 6.86936 11.0086 7.02588 11.0086C7.17805 11.0086 7.32588 10.9521 7.4476 10.839L12.0127 6.491L11.1736 5.6084L7.03459 9.54775Z" fill="#A4AAAF"/>
</svg>
